# xmcd
#
# Track frame offsets: 
#        150
#        23177
#        43950
#        63847
#        84572
#        101585
#        122720
#        141237
#        160040
#        176890
#        193902
#        215470
#        235922
#        255722
#        280520
#
# Disc length: 3924 seconds
#
# Revision: 0
# Processed by: cddbd v1.5.2PL0 Copyright (c) Steve Scherf et al.
# Submitted via: ExactAudioCopy v0.99pb4
#
DISCID=d80f520f
DTITLE=Various Artist - R&B Ladies
DYEAR=1999
DGENRE=R&B
TTITLE0=Beverley Knights - Mutual Feeling (D Lux Remix)
TTITLE1=Hilary - It's On (Femi Fem Remix)
TTITLE2=Di'Mond - Work It (Slow Groove)
TTITLE3=Mishell - Slow Down
TTITLE4=Nicci Hall - My Family Say (Original Version)
TTITLE5=Loren - Lights Out
TTITLE6=D-Zine - Runaway ( Benztown Mix)
TTITLE7=5AM - Dance With Me
TTITLE8=Akin - Sailing
TTITLE9=Beverlei Brown - On And On (The Finest Soul Mix)
TTITLE10=Elisabeth Troy - Headstrong
TTITLE11=Hil St. Soul - Down To Business
TTITLE12=Mars - I Will Be Back Here Very Soon
TTITLE13=Donna Renee - Somewhere
TTITLE14=Yana Johnson - Flow
EXTD=
EXTT0=
EXTT1=
EXTT2=
EXTT3=
EXTT4=
EXTT5=
EXTT6=
EXTT7=
EXTT8=
EXTT9=
EXTT10=
EXTT11=
EXTT12=
EXTT13=
EXTT14=
PLAYORDER=
